<?xml version="1.0" encoding="UTF-8" standalone="no"?>
<svg
   xmlns:dc="http://purl.org/dc/elements/1.1/"
   xmlns:cc="http://creativecommons.org/ns#"
   xmlns:rdf="http://www.w3.org/1999/02/22-rdf-syntax-ns#"
   xmlns:svg="http://www.w3.org/2000/svg"
   xmlns="http://www.w3.org/2000/svg"
   xmlns:sodipodi="http://sodipodi.sourceforge.net/DTD/sodipodi-0.dtd"
   xmlns:inkscape="http://www.inkscape.org/namespaces/inkscape"
   width="297mm"
   height="420mm"
   viewBox="0 0 297 420"
   version="1.1"
   id="svg8"
   inkscape:version="1.0.2 (394de47547, 2021-03-26)"
   sodipodi:docname="box.svg">
  <defs
     id="defs2">
    <inkscape:path-effect
       effect="fillet_chamfer"
       id="path-effect1222"
       is_visible="true"
       lpeversion="1"
       satellites_param="F,0,0,1,0,0,0,1 @ F,0,0,1,0,0,0,1 @ F,0,0,1,0,0,0,1 @ F,0,0,1,0,0,0,1 @ F,0,0,1,0,0,0,1 @ F,0,0,1,0,0,0,1 @ F,0,0,1,0,0,0,1 @ F,0,0,1,0,0,0,1 @ F,0,0,1,0,0,0,1 @ F,0,0,1,0,0,0,1 @ F,0,0,1,0,0,0,1 @ F,0,0,1,0,0,0,1 @ F,0,0,1,0,0,0,1 @ F,0,0,1,0,0,0,1 @ F,0,0,1,0,0,0,1 @ F,0,0,1,0,0,0,1 @ F,0,0,1,0,0,0,1 @ F,0,0,1,0,0,0,1 @ F,0,0,1,0,0,0,1 @ F,0,0,1,0,0,0,1 @ F,0,0,1,0,0,0,1 @ F,0,0,1,0,0,0,1 @ F,0,0,1,0,0,0,1 @ F,0,0,1,0,0,0,1 @ F,0,0,1,0,0,0,1 @ F,0,0,1,0,0,0,1 @ F,0,0,1,0,0,0,1 @ F,0,0,1,0,0,0,1 @ F,0,0,1,0,0,0,1 @ F,0,0,1,0,0,0,1 @ F,0,0,1,0,0,0,1 @ F,0,0,1,0,0,0,1 @ F,0,0,1,0,0,0,1 @ F,0,0,1,0,0,0,1 @ F,0,1,1,0,0.54656695,0,1 @ F,0,0,1,0,0,0,1 @ F,0,0,1,0,0,0,1 @ F,0,0,1,0,0,0,1 @ F,0,0,1,0,0,0,1 @ F,0,0,1,0,0,0,1 @ F,0,1,1,0,0.54656695,0,1 @ F,0,0,1,0,0,0,1 | F,0,0,1,0,0,0,1 @ F,0,0,1,0,0,0,1 @ F,0,0,1,0,0,0,1 @ F,0,0,1,0,0,0,1 @ F,0,0,1,0,0,0,1 @ F,0,0,1,0,0,0,1 @ F,0,0,1,0,0,0,1 @ F,0,0,1,0,0,0,1"
       unit="px"
       method="auto"
       mode="F"
       radius="0"
       chamfer_steps="1"
       flexible="false"
       use_knot_distance="true"
       apply_no_radius="true"
       apply_with_radius="true"
       only_selected="true"
       hide_knots="false" />
    <inkscape:path-effect
       effect="fillet_chamfer"
       id="path-effect1071"
       is_visible="true"
       lpeversion="1"
       satellites_param="F,0,0,1,0,0,0,1 @ F,0,0,1,0,0,0,1 @ F,0,0,1,0,0,0,1 @ F,0,0,1,0,0,0,1 @ F,0,0,1,0,0,0,1 @ F,0,0,1,0,3.8432001,0,1 @ F,0,0,1,0,0,0,1 @ F,0,0,1,0,0,0,1 @ F,0,0,1,0,0,0,1 @ F,0,0,1,0,0,0,1 @ F,0,0,1,0,0,0,1 @ F,0,0,1,0,0,0,1 @ F,0,0,1,0,0,0,1 @ F,0,0,1,0,0,0,1 @ F,0,0,1,0,0,0,1 @ F,0,0,1,0,0,0,1 @ F,0,0,1,0,0,0,1 @ F,0,0,1,0,0,0,1 @ F,0,0,1,0,0,0,1 | F,0,0,1,0,0,0,1 @ F,0,0,1,0,0,0,1 @ F,0,0,1,0,0,0,1 @ F,0,0,1,0,0,0,1"
       unit="px"
       method="auto"
       mode="F"
       radius="0"
       chamfer_steps="1"
       flexible="false"
       use_knot_distance="true"
       apply_no_radius="true"
       apply_with_radius="true"
       only_selected="false"
       hide_knots="false" />
    <inkscape:path-effect
       effect="fillet_chamfer"
       id="path-effect1029"
       is_visible="true"
       lpeversion="1"
       satellites_param="F,0,0,1,0,0,0,1 @ F,0,0,1,0,0,0,1 @ F,0,0,1,0,0,0,1 @ F,0,0,1,0,0,0,1 @ F,0,0,1,0,0,0,1 @ F,0,0,1,0,0,0,1 @ F,0,1,1,0,0.5892893,0,1 @ F,0,1,1,0,0.5892893,0,1 @ F,0,0,1,0,0,0,1 @ F,0,0,1,0,0,0,1 @ F,0,0,1,0,0,0,1 @ F,0,0,1,0,0,0,1 @ F,0,0,1,0,0,0,1 @ F,0,0,1,0,0,0,1 @ F,0,0,1,0,0,0,1 @ F,0,0,1,0,0,0,1 @ F,0,0,1,0,0,0,1 @ F,0,0,1,0,0,0,1 | F,0,0,1,0,0,0,1 @ F,0,0,1,0,0,0,1 @ F,0,0,1,0,0,0,1 @ F,0,0,1,0,0,0,1 | F,0,0,1,0,0,0,1 @ F,0,0,1,0,0,0,1 @ F,0,0,1,0,0,0,1 @ F,0,0,1,0,0,0,1"
       unit="px"
       method="auto"
       mode="F"
       radius="3"
       chamfer_steps="1"
       flexible="false"
       use_knot_distance="true"
       apply_no_radius="true"
       apply_with_radius="true"
       only_selected="true"
       hide_knots="false" />
    <inkscape:path-effect
       effect="fillet_chamfer"
       id="path-effect884"
       is_visible="true"
       lpeversion="1"
       satellites_param="F,0,0,1,0,0,0,1 @ F,0,0,1,0,0,0,1 @ F,0,0,1,0,0,0,1 @ F,0,0,1,0,0,0,1 @ F,0,0,1,0,0,0,1 @ F,0,0,1,0,0,0,1 @ F,0,0,1,0,0,0,1 @ F,0,0,1,0,0,0,1 @ F,0,0,1,0,0,0,1 @ F,0,0,1,0,0,0,1 @ F,0,0,1,0,0,0,1 @ F,0,0,1,0,0,0,1 @ F,0,0,1,0,0,0,1 @ F,0,0,1,0,0,0,1 @ F,0,0,1,0,0,0,1 @ F,0,0,1,0,0,0,1 @ F,0,0,1,0,0,0,1 @ F,0,0,1,0,0,0,1 @ F,0,0,1,0,0,0,1 @ F,0,0,1,0,0,0,1 @ F,0,0,1,0,0,0,1 @ F,0,0,1,0,0,0,1 @ F,0,0,1,0,0,0,1 @ F,0,0,1,0,0,0,1 @ F,0,0,1,0,0,0,1 @ F,0,0,1,0,0,0,1 @ F,0,0,1,0,0,0,1 @ F,0,0,1,0,0,0,1 @ F,0,0,1,0,0,0,1 @ F,0,0,1,0,0,0,1 @ F,0,0,1,0,0,0,1 @ F,0,0,1,0,0,0,1 @ F,0,0,1,0,0,0,1 @ F,0,0,1,0,0,0,1 @ F,0,0,1,0,0,0,1 @ F,0,0,1,0,0,0,1 | F,0,1,1,0,0.34937709,0,1 @ F,0,0,1,0,0.34937709,0,1 @ F,0,1,1,0,0.34937709,0,1 @ F,0,1,1,0,0.34937709,0,1"
       unit="px"
       method="auto"
       mode="F"
       radius="5"
       chamfer_steps="1"
       flexible="false"
       use_knot_distance="true"
       apply_no_radius="true"
       apply_with_radius="true"
       only_selected="false"
       hide_knots="false" />
    <inkscape:path-effect
       effect="bspline"
       id="path-effect2962"
       is_visible="true"
       lpeversion="1"
       weight="33.333333"
       steps="1"
       helper_size="3"
       apply_no_weight="false"
       apply_with_weight="false"
       only_selected="false" />
    <mask
       maskUnits="userSpaceOnUse"
       id="mask1898">
      <rect
         style="fill:#ff8080;stroke:#000000;stroke-width:0.1;stroke-miterlimit:9.23077;paint-order:markers fill stroke"
         id="rect1900"
         width="133.23387"
         height="144.45917"
         x="343.97589"
         y="26.99423"
         ry="9.0752525" />
    </mask>
    <mask
       maskUnits="userSpaceOnUse"
       id="mask1898-3">
      <rect
         style="fill:#ff8080;stroke:#000000;stroke-width:0.1;stroke-miterlimit:9.23077;paint-order:markers fill stroke"
         id="rect1900-6"
         width="133.23387"
         height="144.45917"
         x="343.97589"
         y="26.99423"
         ry="9.0752525" />
    </mask>
    <mask
       maskUnits="userSpaceOnUse"
       id="mask1898-36">
      <rect
         style="fill:#ff8080;stroke:#000000;stroke-width:0.1;stroke-miterlimit:9.23077;paint-order:markers fill stroke"
         id="rect1900-0"
         width="133.23387"
         height="144.45917"
         x="343.97589"
         y="26.99423"
         ry="9.0752525" />
    </mask>
    <mask
       maskUnits="userSpaceOnUse"
       id="mask1898-3-6">
      <rect
         style="fill:#ff8080;stroke:#000000;stroke-width:0.1;stroke-miterlimit:9.23077;paint-order:markers fill stroke"
         id="rect1900-6-2"
         width="133.23387"
         height="144.45917"
         x="343.97589"
         y="26.99423"
         ry="9.0752525" />
    </mask>
    <mask
       maskUnits="userSpaceOnUse"
       id="mask1898-0">
      <rect
         style="fill:#ff8080;stroke:#000000;stroke-width:0.1;stroke-miterlimit:9.23077;paint-order:markers fill stroke"
         id="rect1900-2"
         width="133.23387"
         height="144.45917"
         x="343.97589"
         y="26.99423"
         ry="9.0752525" />
    </mask>
    <mask
       maskUnits="userSpaceOnUse"
       id="mask1898-3-3">
      <rect
         style="fill:#ff8080;stroke:#000000;stroke-width:0.1;stroke-miterlimit:9.23077;paint-order:markers fill stroke"
         id="rect1900-6-7"
         width="133.23387"
         height="144.45917"
         x="343.97589"
         y="26.99423"
         ry="9.0752525" />
    </mask>
  </defs>
  <sodipodi:namedview
     id="base"
     pagecolor="#ffffff"
     bordercolor="#666666"
     borderopacity="1.0"
     inkscape:pageopacity="0.0"
     inkscape:pageshadow="2"
     inkscape:zoom="0.35355339"
     inkscape:cx="359.5766"
     inkscape:cy="694.93587"
     inkscape:document-units="mm"
     inkscape:current-layer="svg8"
     inkscape:document-rotation="0"
     showgrid="false"
     inkscape:snap-nodes="true"
     inkscape:snap-global="true"
     showguides="true"
     inkscape:guide-bbox="true"
     inkscape:snap-bbox="true"
     inkscape:snap-bbox-midpoints="true"
     inkscape:object-nodes="true"
     inkscape:lockguides="false"
     inkscape:window-width="2508"
     inkscape:window-height="1376"
     inkscape:window-x="1972"
     inkscape:window-y="27"
     inkscape:window-maximized="1"
     inkscape:bbox-paths="true"
     inkscape:bbox-nodes="true" />
  <metadata
     id="metadata5">
    <rdf:RDF>
      <cc:Work
         rdf:about="">
        <dc:format>image/svg+xml</dc:format>
        <dc:type
           rdf:resource="http://purl.org/dc/dcmitype/StillImage" />
        <dc:title />
      </cc:Work>
    </rdf:RDF>
  </metadata>
  <path
     id="rect1117"
     style="fill:#666666;fill-opacity:1;stroke:none;stroke-width:0;stroke-linejoin:round;stroke-miterlimit:4;stroke-dasharray:none;stroke-opacity:0.997619;paint-order:normal"
     d="m 187.3831,176.4444 c -2.77337,0 -5.0059,2.23253 -5.0059,5.0059 v 161.96272 c 0,2.77337 2.23253,5.0059 5.0059,5.0059 h 99.02134 c 2.77337,-1e-5 5.00642,-2.23253 5.00642,-5.0059 V 181.4503 c 0,-2.77337 -2.23305,-5.0059 -5.00642,-5.0059 z m 12.68346,16.9292 c 0.96662,0 1.74977,0.78315 1.74977,1.74976 0,0.96662 -0.78315,1.74977 -1.74977,1.74977 -0.96661,0 -1.74976,-0.78315 -1.74976,-1.74977 0,-0.96661 0.78315,-1.74976 1.74976,-1.74976 z m 73.66011,0 c 0.96661,0 1.74976,0.78315 1.74976,1.74976 0,0.96662 -0.78315,1.74977 -1.74976,1.74977 -0.96662,0 -1.74977,-0.78315 -1.74977,-1.74977 0,-0.96661 0.78315,-1.74976 1.74977,-1.74976 z m -70.7037,36.58536 h 67.74522 c 1.939,0 3.50004,1.56106 3.50004,3.50005 v 77.74512 c 0,1.939 -1.56104,3.49953 -3.50004,3.49953 h -67.74522 c -1.93901,0 -3.49953,-1.56053 -3.49953,-3.49953 v -77.74512 c 0,-1.93899 1.56052,-3.50005 3.49953,-3.50005 z m -2.95641,98.03485 c 0.96661,0 1.74977,0.78315 1.74977,1.74976 0,0.96661 -0.78316,1.74976 -1.74977,1.74976 -0.96661,0 -1.74976,-0.78315 -1.74976,-1.74976 0,-0.96661 0.78315,-1.74976 1.74976,-1.74976 z m 73.66011,0 c 0.96661,0 1.74976,0.78315 1.74976,1.74976 0,0.96661 -0.78315,1.74976 -1.74976,1.74976 -0.96662,0 -1.74977,-0.78315 -1.74977,-1.74976 0,-0.96661 0.78315,-1.74976 1.74977,-1.74976 z" />
  <path
     id="rect4045"
     style="fill:#666666;stroke:none;stroke-width:0.0377953;stroke-miterlimit:4;stroke-dasharray:none;paint-order:markers fill stroke;fill-opacity:1"
     d="M 267.03516 224.56445 C 256.55314 224.56445 248.11523 233.00235 248.11523 243.48438 L 248.11523 855.62695 C 248.11523 866.10898 256.55314 874.54687 267.03516 874.54688 L 641.28906 874.54688 C 651.77109 874.54684 660.21094 866.10898 660.21094 855.62695 L 660.21094 243.48438 C 660.21094 233.00235 651.77109 224.56445 641.28906 224.56445 L 267.03516 224.56445 z M 372.83594 254.17188 L 535.56641 254.17188 L 535.56641 265.66016 L 372.83398 265.66016 L 372.83594 254.17188 z M 623.34766 266.34961 L 634.72266 266.34961 L 634.72266 340.50391 L 623.34766 340.50391 L 623.34766 266.34961 z M 285.21875 266.35352 L 285.21875 340.50781 L 273.75 340.51172 L 273.75 266.35742 L 285.21875 266.35352 z M 315.00586 288.53906 C 318.65923 288.53906 321.61719 291.49901 321.61719 295.15234 C 321.61719 298.80568 318.65923 301.76562 315.00586 301.76562 C 311.35253 301.76562 308.39062 298.80568 308.39062 295.15234 C 308.39062 291.49901 311.35253 288.53906 315.00586 288.53906 z M 593.4043 288.53906 C 597.0577 288.53906 600.01758 291.49901 600.01758 295.15234 C 600.01758 298.80568 597.0577 301.76562 593.4043 301.76562 C 589.75101 301.76562 586.79297 298.80568 586.79297 295.15234 C 586.79297 291.49901 589.75101 288.53906 593.4043 288.53906 z M 398.13867 335.79883 L 509.82617 335.79883 C 514.01389 335.79882 517.38477 339.1697 517.38477 343.35742 L 517.38477 410.95312 C 517.38477 415.14088 514.01389 418.51172 509.82617 418.51172 L 398.13867 418.51172 C 393.95096 418.51172 390.57813 415.14088 390.57812 410.95312 L 390.57812 343.35742 C 390.57812 339.1697 393.9135 335.82493 398.13867 335.79883 z M 273.73438 468.18945 L 285.20312 468.18945 L 285.20312 630.93555 L 273.73438 630.93555 L 273.73438 468.18945 z M 623.34766 468.19336 L 634.72266 468.19336 L 634.72266 630.9375 L 623.34766 630.9375 L 623.34766 468.19336 z M 412.80078 701.49023 L 495.52344 701.49023 L 495.52344 719.96484 L 412.80078 719.96484 L 412.80078 701.49023 z M 273.75 758.61328 L 285.20312 758.61328 L 285.20312 832.76758 L 273.75 832.76758 L 273.75 758.61328 z M 623.34766 758.61328 L 634.72266 758.61328 L 634.72266 832.76758 L 623.34766 832.76758 L 623.34766 758.61328 z M 315.00586 797.33984 C 318.65919 797.33984 321.61719 800.2998 321.61719 803.95312 C 321.61719 807.60642 318.65919 810.56641 315.00586 810.56641 C 311.35253 810.56641 308.39062 807.60642 308.39062 803.95312 C 308.39062 800.2998 311.35253 797.33984 315.00586 797.33984 z M 593.4043 797.33984 C 597.0577 797.33984 600.01758 800.2998 600.01758 803.95312 C 600.01758 807.60642 597.0577 810.56641 593.4043 810.56641 C 589.75101 810.56641 586.79297 807.60642 586.79297 803.95312 C 586.79297 800.2998 589.75101 797.33984 593.4043 797.33984 z M 372.83398 833.55859 L 535.56641 833.55859 L 535.56641 845.04883 L 372.83594 845.04883 L 372.83398 833.55859 z "
     transform="scale(0.26458333)" />
  <path
     id="rect3175-9"
     style="display:inline;fill:#666666;fill-opacity:1;stroke:none;stroke-width:0.01;stroke-miterlimit:4;stroke-dasharray:none;paint-order:markers fill stroke"
     d="m 52.849556,76.910357 v 0.0057 h -0.59118 V 96.938031 H 49.228588 V 76.916043 l -5.063257,-5.19e-4 v 45.003936 c 0,0.98064 -0.751047,1.70959 -1.805057,1.70015 l -1.117761,-0.017 c -1.838981,-0.0281 -3.193706,1.55042 -3.199805,3.27991 3.36e-4,0.0752 3.76e-4,0.16691 5.16e-4,0.27181 0.0028,2.12254 -1.728388,3.84364 -3.850928,3.84421 l -18.423165,0.005 v 3.699 l 10.17044,-0.006 v 3.02979 l -10.17044,0.006 v 1.44229 1.3534 0.009 h 5.19e-4 c 0.0051,2.76901 2.235679,4.9966 5.005895,4.9966 H 53.92029 c 2.773371,0 5.006415,-2.23253 5.006415,-5.0059 V 81.916252 c 0,-2.588506 -1.945461,-4.704095 -4.459677,-4.974888 v -0.02532 h -0.433565 c -0.03798,-8.44e-4 -0.07498,-0.0057 -0.113173,-0.0057 z M 41.242513,125.11358 c 0.96661,0 1.749764,0.78315 1.749764,1.74976 0,0.96661 -0.783154,1.74977 -1.749764,1.74977 -0.966621,0 -1.749764,-0.78316 -1.749764,-1.74977 0,-0.96661 0.783143,-1.74976 1.749764,-1.74976 z" />
  <path
     id="rect3175"
     style="fill:#666666;fill-opacity:1;stroke:none;stroke-width:0.01;stroke-miterlimit:4;stroke-dasharray:none;paint-order:markers fill stroke"
     d="m 20.780713,148.18947 c -2.77337,0 -5.006414,2.23253 -5.006414,5.0059 v 1.71772 1.11725 l 10.17044,0.005 v 3.02979 l -10.17044,-0.005 v 2.92076 l 13.540777,0.0362 a 0.59086829,0.59086829 0 0 1 0.58911,0.59066 v 18.40663 c 0,0.32546 0.263658,0.59 0.589111,0.59066 9.54727,0.0195 4.102965,0.015 11.684042,0.015 1.609191,0 1.993159,0.71951 1.993159,1.70015 v 33.6088 l 5.063258,-0.009 v -20.09593 l 3.034956,-0.005 v 20.09283 l 0.521417,5.1e-4 v 0.0165 h 1.130162 c 0.102185,0 0.202192,-0.009 0.302824,-0.015 h 0.248565 v -0.0165 c 2.511965,-0.2729 4.455025,-2.38799 4.455025,-4.97489 v -58.72768 c 0,-2.77337 -2.233044,-5.0059 -5.006414,-5.0059 z m 20.466968,16.9292 c 0.96661,0 1.749763,0.78315 1.749763,1.74976 0,0.96662 -0.783153,1.74977 -1.749763,1.74977 -0.966621,0 -1.749764,-0.78315 -1.749764,-1.74977 0,-0.96661 0.783143,-1.74976 1.749764,-1.74976 z m -5.098915,8.95656 c 1.656911,1e-4 2.999996,1.34342 2.999816,3.00033 -9.7e-5,1.65671 -1.343107,2.99971 -2.999816,2.99982 -1.65671,-1e-4 -2.999716,-1.34311 -2.999817,-2.99982 -1.8e-4,-1.65691 1.342909,-3.00023 2.999817,-3.00033 z" />
  <path
     id="rect2998-2-9-0"
     style="display:inline;fill:#666666;stroke:none;stroke-width:0.01;stroke-miterlimit:4;stroke-dasharray:none;paint-order:markers fill stroke;fill-opacity:1"
     d="m 28.624518,20.516532 v 2.89491 H 5.4460895 l -2.8e-6,5.518668 H 28.627615 l 4e-6,3.02979 H 5.4460907 l -4e-6,19.73936 H 28.624515 v 2.80242 h 43.059373 v -2.80242 h 23.22546 V 31.9599 h -23.22546 v -3.02979 h 23.22546 l 3e-6,-5.518668 h -23.22546 v -2.89491 z"
     sodipodi:nodetypes="ccccccccccccccccccccc" />
  <path
     id="rect3376"
     style="fill:#666666;stroke:none;stroke-width:0.01;stroke-miterlimit:4;stroke-dasharray:none;paint-order:markers fill stroke;fill-opacity:1"
     d="m 232.79765,16.455047 v 3.156916 h -2.81895 v 19.622058 h 2.81895 v 33.778813 h -2.8236 V 116.0759 h 2.8236 v 33.7783 h -2.81895 v 19.62257 h 2.81895 v 3.20497 l 5.51798,-1e-5 v -40.75462 l 3.02977,5.3e-4 v 40.75411 l 19.73938,-1e-5 v -3.20187 h 2.87011 V 149.8578 h -2.87011 v -33.77881 h 2.80241 V 73.016444 h -2.80241 V 39.237628 h 2.87011 V 19.61557 h -2.87011 v -3.160533 l -19.73938,6e-6 v 40.734461 l -3.02977,-10e-4 V 16.455037 Z m 13.78367,26.083669 h 7.95187 c 0.19296,0 0.34938,0.156421 0.34938,0.349377 v 13.952034 c 0,0.192956 -0.15642,0.349377 -0.34938,0.349377 h -7.95187 c -0.19296,0 -0.34938,-0.156421 -0.34938,-0.349377 V 42.888093 c 0,-0.192956 0.15642,-0.349377 0.34938,-0.349377 z"
     sodipodi:nodetypes="ccccccccccccccccccccccccccccccccccccccccccsssc" />
  <path
     id="rect2998-2-9-0-1"
     style="display:inline;fill:#666666;stroke:none;stroke-width:0.01;stroke-miterlimit:4;stroke-dasharray:none;paint-order:markers fill stroke;fill-opacity:1"
     d="m 164.93598,20.516532 v 2.89491 h 23.17843 l 1e-5,5.518667 h -23.18153 l -10e-6,3.02978 h 23.18153 l 1e-5,19.73937 h -23.17843 v 2.80242 H 121.8766 v -2.80242 H 98.651122 V 31.959889 H 121.8766 v -3.02978 H 98.651122 v -5.518667 h 23.225468 v -2.89491 z"
     sodipodi:nodetypes="ccccccccccccccccccccc" />
  <path
     id="rect3376-2"
     style="display:inline;fill:#666666;stroke:none;stroke-width:0.01;stroke-miterlimit:4;stroke-dasharray:none;paint-order:markers fill stroke;fill-opacity:1"
     d="m 194.79052,16.460066 v 3.160532 h -2.87011 v 19.621549 h 2.87011 v 33.779327 h -2.80241 v 43.062546 h 2.80241 v 33.77882 h -2.87011 v 19.62206 h 2.87011 v 3.20187 l 19.73938,-5.3e-4 v -40.7541 h 3.02977 v 40.7541 l 5.51798,1e-5 v -3.20444 h 2.81895 v -19.62258 h -2.81895 v -33.7783 h 2.8236 V 73.017357 h -2.8236 V 39.23906 h 2.81895 V 19.617 h -2.81895 v -3.156921 l -5.51798,-1.3e-5 v 40.733438 l -2.4832,-0.0033 c -0.30173,-3.99e-4 -0.54653,0.244115 -0.54648,0.545845 l 6e-4,3.762474 -8.52611,0.005 c -0.24517,1.43e-4 -0.44235,-0.197181 -0.44235,-0.442351 v -9.995767 c 0,-0.24517 0.19718,-0.442207 0.44235,-0.44235 l 7.97954,-0.0047 c 0.30191,-1.75e-4 0.54657,-0.244976 0.54656,-0.546888 l -6.8e-4,-33.616444 z m 8.52713,122.181374 h 7.99537 c 0.24517,0 0.44235,0.19718 0.44235,0.44235 v 9.99577 c 0,0.24517 -0.19718,0.44235 -0.44235,0.44235 h -7.99537 c -0.24517,0 -0.44235,-0.19718 -0.44235,-0.44235 v -9.99577 c 0,-0.24517 0.19718,-0.44235 0.44235,-0.44235 z"
     sodipodi:nodetypes="scccccccccccccccccccccccccccccccccccsssscccsssssssssss" />
  <path
     id="rect4045-1-9"
     style="display:inline;fill:#666666;stroke:none;stroke-width:0.01;stroke-miterlimit:4;stroke-dasharray:none;paint-order:markers fill stroke;fill-opacity:1"
     d="m 174.67565,244.33922 c 0,-2.77337 -2.23253,-5.0059 -5.0059,-5.0059 H 7.7070065 c -2.7733704,0 -5.0059004,2.23253 -5.0059004,5.0059 v 99.02133 c 1e-5,2.77337 2.23253,5.00641 5.0059004,5.00641 H 169.66975 c 2.77337,0 5.0059,-2.23304 5.0059,-5.00641 z m -16.93075,12.69173 c 0,0.96662 -0.78367,1.74976 -1.75028,1.74976 -0.96661,0 -1.74925,-0.78314 -1.74925,-1.74976 0,-0.96661 0.78264,-1.74925 1.74925,-1.74925 0.96661,0 1.75028,0.78264 1.75028,1.74925 z m 0,73.66009 c 0,0.96661 -0.78367,1.75028 -1.75028,1.75028 -0.96661,0 -1.74925,-0.78367 -1.74925,-1.75028 0,-0.96662 0.78264,-1.74976 1.74925,-1.74976 0.96661,0 1.75028,0.78314 1.75028,1.74976 z M 23.124665,257.03095 c 0,0.96661 -0.78315,1.74976 -1.74976,1.74976 -0.96661,0 -1.74977,-0.78315 -1.74977,-1.74976 0,-0.96661 0.78316,-1.74925 1.74977,-1.74925 0.96661,0 1.74976,0.78264 1.74976,1.74925 z m 0,73.66009 c 0,0.96661 -0.78315,1.75028 -1.74976,1.75028 -0.96661,0 -1.74977,-0.78367 -1.74977,-1.75028 0,-0.96662 0.78316,-1.74976 1.74977,-1.74976 0.96661,0 1.74976,0.78314 1.74976,1.74976 z" />
  <g
     id="rect2962"
     style="fill:#ff00ff;stroke:#000000;stroke-width:0.01;stroke-miterlimit:4;stroke-dasharray:none"
     transform="translate(0.58152002,20.378942)" />
  <path
     id="rect3175-9-7"
     style="display:inline;fill:#666666;fill-opacity:1;stroke:none;stroke-width:0.01;stroke-miterlimit:4;stroke-dasharray:none;paint-order:markers fill stroke"
     d="m 17.772845,166.86884 v 0.006 h 0.59118 v 20.0221 h 3.02979 v -20.0221 l 5.063265,-5.3e-4 v 45.00404 c 0,0.98064 0.75104,1.70959 1.80505,1.70015 l 1.11776,-0.017 c 1.83898,-0.0281 3.19371,1.55043 3.19981,3.27991 -2.7e-4,0.0752 -2.7e-4,0.16691 -5.3e-4,0.27182 -0.003,2.12253 1.72839,3.84363 3.85093,3.84421 l 18.423156,0.005 v 3.69899 l -10.170436,-0.006 v 3.02979 l 10.170436,0.006 v 1.44229 1.35341 0.009 h -5.3e-4 c -0.005,2.769 -2.23568,4.9966 -5.0059,4.9966 H 16.702085 c -2.773371,0 -5.006412,-2.23253 -5.006412,-5.0059 v -58.61197 c 0,-2.58852 1.94546,-4.70412 4.459672,-4.97491 v -0.0253 h 0.43357 c 0.038,-7.9e-4 0.075,-0.006 0.11317,-0.006 z m 11.607045,48.20333 c -0.96661,0 -1.74976,0.78315 -1.74976,1.74976 0,0.96661 0.78315,1.74977 1.74976,1.74977 0.96662,0 1.74977,-0.78316 1.74977,-1.74977 0,-0.96661 -0.78316,-1.74976 -1.74977,-1.74976 z" />
  <path
     id="rect3175-5"
     style="fill:#666666;fill-opacity:1;stroke:none;stroke-width:0.01;stroke-miterlimit:4;stroke-dasharray:none;paint-order:markers fill stroke"
     d="m 49.852026,58.891847 c 2.77337,0 5.00641,2.232528 5.00641,5.005898 v 1.717723 1.117245 L 44.688,66.737913 v 3.029789 l 10.170436,-0.0052 v 2.920751 l -13.540766,0.03617 a 0.59086829,0.59086829 0 0 0 -0.58911,0.590661 v 18.40663 c 0,0.32546 -0.26366,0.59 -0.58911,0.59067 -9.54727,0.0195 -4.10297,0.015 -11.68405,0.015 -1.60919,0 -1.99315,0.71951 -1.99315,1.70016 v 33.608826 l -5.063265,-0.009 v -20.09593 l -3.03496,-0.005 v 20.09283 l -0.52141,5.3e-4 v 0.0165 h -1.13017 c -0.10218,0 -0.20219,-0.009 -0.30282,-0.015 h -0.24857 v -0.0165 c -2.511961,-0.2729 -4.455022,-2.38799 -4.455022,-4.97489 V 63.897745 c 0,-2.77337 2.233041,-5.005898 5.006412,-5.005898 z m -20.466966,16.9292 c -0.96661,0 -1.74976,0.783154 -1.74976,1.749764 0,0.966613 0.78315,1.749763 1.74976,1.749763 0.96662,0 1.74977,-0.78315 1.74977,-1.749763 0,-0.96661 -0.78316,-1.749764 -1.74977,-1.749764 z m 5.09891,8.956559 c -1.6569,1.06e-4 -3,1.343424 -2.99981,3.000332 10e-5,1.65671 1.3431,2.999716 2.99981,2.999816 1.65672,-1e-4 2.99971,-1.343103 2.99982,-2.999816 1.8e-4,-1.656913 -1.34291,-3.000234 -2.99982,-3.000332 z" />
  <g
     id="rect2962-8"
     style="fill:#ff00ff"
     transform="translate(380.41312,-96.424427)" />
  <g
     id="rect2962-1"
     style="fill:#ff00ff"
     transform="translate(461.35131,-124.36231)" />
</svg>
